<svg version="1.1" id="Layer_1" xmlns="http://www.w3.org/2000/svg" xmlns:xlink="http://www.w3.org/1999/xlink" x="0px" y="0px"
	 width="100%" viewBox="0 0 928 560" enable-background="new 0 0 928 560" xml:space="preserve">
<path fill="#ffffff" opacity="1.000000" stroke="none" 
	d="
M457.668396,411.999939 
	C457.663879,399.835480 457.689117,388.170959 457.647614,376.506653 
	C457.601135,363.452545 449.049530,354.304749 436.643311,353.959930 
	C424.344360,353.618042 415.124939,362.463196 414.425690,375.419037 
	C414.228424,379.074493 414.539307,382.757385 414.341187,386.412750 
	C414.150024,389.939240 415.723633,391.089111 419.066895,391.112549 
	C425.390564,391.156830 431.734680,390.671478 438.037781,391.563171 
	C443.304321,392.308228 446.647980,395.744965 446.972107,400.702881 
	C447.267761,405.225494 443.811279,409.609711 438.783173,410.592468 
	C432.853546,411.751434 426.806580,411.240601 420.838623,411.021851 
	C415.922089,410.841644 414.211823,412.254913 414.255493,417.462280 
	C414.494293,445.954712 414.420624,474.450623 414.305786,502.944733 
	C414.268402,512.218933 410.198608,519.449036 401.628204,523.362427 
	C393.404938,527.117371 385.381287,526.160400 378.126465,520.592041 
	C372.897583,516.578796 371.756958,510.806885 375.111755,506.169739 
	C378.377777,501.655304 383.789429,500.853668 389.237366,504.077393 
	C393.256042,506.455383 395.202850,505.589447 395.205200,500.995178 
	C395.219696,472.502625 395.078552,444.009979 395.076111,415.517365 
	C395.075806,411.745544 393.075195,410.490692 389.797607,410.479187 
	C385.441559,410.463867 381.425018,410.239136 377.648132,407.154907 
	C374.524780,404.604309 369.333557,408.293518 369.323822,412.711945 
	C369.274994,434.874268 369.339050,457.036957 369.245850,479.199036 
	C369.136353,505.232727 352.687103,526.037659 327.871643,531.724182 
	C319.777039,533.579102 311.704987,533.638550 303.695709,531.306885 
	C296.806427,529.301392 293.524780,524.615417 294.940491,518.988403 
	C296.403320,513.174133 301.147522,510.524933 308.343445,511.913513 
	C316.612305,513.509094 324.547394,513.242615 332.048004,508.951385 
	C343.651367,502.312927 349.147949,492.259186 349.161957,479.183563 
	C348.101105,478.245178 347.384735,478.716431 346.716187,479.207977 
	C329.570648,491.813873 296.234467,482.815613 290.067993,453.307404 
	C286.450378,435.996246 288.932556,418.095825 288.973145,400.465210 
	C288.987152,394.386810 293.832825,390.928772 299.835510,391.322571 
	C310.309998,392.009735 310.144073,391.996643 309.317566,402.474182 
	C308.150940,417.263702 308.785126,432.092133 309.295746,446.879639 
	C309.648346,457.091156 318.881561,464.811188 329.206818,464.695831 
	C339.681305,464.578857 348.355621,456.900238 348.743561,446.517975 
	C349.222198,433.708008 349.216156,420.868805 348.989838,408.049866 
	C348.914215,403.765930 349.964020,399.521545 348.975677,395.167206 
	C348.408936,392.670258 350.830444,392.016968 352.910919,391.666748 
	C361.686584,390.189423 370.533081,391.022003 379.348328,390.857666 
	C383.178619,390.786255 387.015747,390.715363 390.841248,390.863373 
	C393.981873,390.984924 395.311127,390.008209 395.170319,386.576172 
	C394.973175,381.771851 395.508728,376.942657 395.500824,372.124481 
	C395.463013,349.061066 419.293182,333.762939 435.941925,333.756958 
	C457.138458,333.749359 474.875153,349.397949 477.485565,370.733093 
	C478.524475,379.223999 478.040131,387.703491 478.078949,396.184204 
	C478.191833,420.845551 478.141602,445.507812 478.087891,470.169586 
	C478.072815,477.089386 473.950531,482.078369 468.210449,482.466400 
	C461.915405,482.891968 457.730011,478.869049 457.702881,471.986298 
	C457.624664,452.157745 457.671173,432.328766 457.668396,411.999939 
z"/>
<path fill="#ffffff" opacity="1.000000" stroke="none" 
	d="
M482.772247,82.999962 
	C482.773315,67.672897 482.967743,52.841915 482.666626,38.021000 
	C482.566467,33.091743 484.381439,31.798368 488.763184,32.720345 
	C489.249847,32.822739 489.765991,32.790073 490.249359,32.902225 
	C509.326385,37.328346 505.928040,33.049637 506.075958,51.595821 
	C506.283203,77.583183 506.068542,103.573723 506.201172,129.562042 
	C506.221375,133.519257 505.171722,136.529922 502.278198,139.294174 
	C496.981262,144.354431 492.125275,149.877487 486.808441,154.915268 
	C483.888763,157.681763 482.857544,160.698654 482.875305,164.634308 
	C482.985809,189.123199 482.896484,213.612900 482.921967,238.102295 
	C482.930450,246.254318 483.156708,254.406326 483.144348,262.558136 
	C483.134247,269.205048 482.921173,269.094391 476.524506,269.462708 
	C470.915802,269.785675 465.225708,268.411621 459.679688,270.354248 
	C457.993164,270.945007 457.255035,269.594757 457.086823,268.149567 
	C456.914429,266.668182 456.929596,265.160461 456.929260,263.664246 
	C456.921509,230.678268 456.864990,197.692047 456.995819,164.706589 
	C457.012299,160.546021 455.827423,157.477020 452.793732,154.603775 
	C447.234070,149.338257 442.079163,143.648087 436.645844,138.245193 
	C434.610474,136.221222 433.735107,133.998337 433.739838,131.131866 
	C433.789093,101.144676 433.791992,71.157249 433.708313,41.170174 
	C433.698914,37.802029 434.662292,35.914097 438.268463,35.385242 
	C442.534363,34.759640 446.696869,33.438641 450.960052,32.781734 
	C456.957214,31.857651 457.183899,32.162064 457.183990,38.208965 
	C457.184418,64.864334 457.651611,91.533028 456.911682,118.168060 
	C456.642090,127.871933 463.046295,131.796432 468.520996,137.032669 
	C470.093933,138.537094 471.600006,137.305435 472.844482,136.067078 
	C475.559937,133.364990 478.210052,130.592896 481.011230,127.982864 
	C482.852386,126.267357 482.747498,124.145348 482.749084,121.982994 
	C482.758545,109.155319 482.764923,96.327644 482.772247,82.999962 
z"/>
<path fill="#ffffff" opacity="1.000000" stroke="none" 
	d="
M574.578613,160.609222 
	C570.848572,164.266312 570.121521,168.405350 570.168701,173.155594 
	C570.325684,188.959183 569.859192,204.764771 571.216370,220.549927 
	C572.212830,232.139267 568.736328,241.925598 559.437256,249.563141 
	C554.340637,253.749130 549.815552,258.626953 544.175171,262.168182 
	C541.897888,260.081360 542.713989,257.781799 542.709717,255.767761 
	C542.649170,227.278763 542.614685,198.789352 542.733887,170.300720 
	C542.749023,166.679611 541.712463,164.003510 539.119629,161.483948 
	C533.148132,155.681137 527.456055,149.591858 521.566833,143.702591 
	C519.814148,141.949890 518.829651,140.074265 518.832336,137.546524 
	C518.865845,106.058388 518.849731,74.570190 518.868286,43.082020 
	C518.868958,41.956253 518.688110,40.715691 520.052979,39.617466 
	C524.144226,39.826668 527.429443,42.563797 531.056274,44.395779 
	C533.281128,45.519619 535.285645,47.088669 537.530029,48.163319 
	C542.615051,50.598095 544.433472,54.250229 544.325195,60.084129 
	C543.941772,80.735886 544.399902,101.402992 544.040771,122.055618 
	C543.933350,128.230042 545.222778,133.076752 550.246277,136.816956 
	C552.348572,138.382111 553.694214,140.868210 556.761108,142.320145 
	C560.005005,138.267883 563.275513,134.138962 566.597595,130.051941 
	C568.134033,128.161682 567.382874,126.301025 566.718445,124.400803 
	C564.237000,117.304443 561.302551,110.402405 557.073975,104.163818 
	C555.067017,101.202843 555.598877,99.548836 558.711182,97.949615 
	C563.447876,95.515747 568.057739,92.821754 572.627747,90.081985 
	C575.250916,88.509438 577.126038,88.588989 578.775208,91.452835 
	C586.051331,104.087646 591.678101,117.342896 594.585205,131.699936 
	C595.002380,133.760193 594.482422,135.186249 593.276428,136.714127 
	C587.085388,144.557861 580.951416,152.446701 574.578613,160.609222 
z"/>
<path fill="#ffffff" opacity="1.000000" stroke="none" 
	d="
M421.063904,114.000000 
	C421.056488,121.831711 420.960327,129.164917 421.084259,136.494415 
	C421.135895,139.548096 420.170868,141.884827 417.999664,144.040375 
	C412.206909,149.791412 406.700562,155.835098 400.819122,161.490799 
	C398.178619,164.029968 397.228912,166.703674 397.243286,170.298965 
	C397.356720,198.625641 397.320892,226.952988 397.284241,255.280060 
	C397.281525,257.385803 397.771912,259.589600 396.671661,261.563995 
	C395.043671,262.297760 394.063629,261.170990 393.051270,260.409332 
	C384.882385,254.263336 377.787872,247.024597 371.360291,239.094879 
	C369.735504,237.090424 369.701080,234.841019 369.701691,232.492142 
	C369.706970,212.163269 369.608887,191.833710 369.767334,171.506119 
	C369.797913,167.586105 368.728546,164.516312 366.271637,161.514221 
	C359.835938,153.650543 353.625366,145.602264 347.349884,137.608047 
	C346.029724,135.926346 344.774658,134.397003 345.347137,131.801086 
	C348.419067,117.870560 353.339813,104.703056 360.496918,92.334320 
	C362.570374,88.751053 364.599152,88.250626 368.041901,90.470131 
	C372.375214,93.263763 376.909973,95.775360 381.503052,98.124748 
	C384.516113,99.665962 384.734253,101.273857 382.959595,103.993622 
	C378.750732,110.443909 375.815826,117.512329 373.343933,124.795189 
	C372.526337,127.204147 372.513153,129.163055 374.279266,131.225784 
	C377.294983,134.747940 380.073944,138.472763 383.401794,142.680786 
	C389.213776,136.623520 396.392120,132.956909 395.991760,122.552948 
	C395.159424,100.923088 395.813690,79.238327 395.669800,57.577374 
	C395.646027,53.994076 396.746979,51.685310 399.803864,49.807331 
	C406.174927,45.893326 412.465668,41.878418 421.064026,38.736034 
	C421.064026,64.207611 421.064026,88.853806 421.063904,114.000000 
z"/>
<path fill="#ffffff" opacity="1.000000" stroke="none" 
	d="
M518.747925,392.448303 
	C531.851685,388.624023 544.604919,389.151764 558.989685,398.821411 
	C560.798279,398.427002 560.658813,396.528351 561.533447,395.409149 
	C564.226624,391.962921 567.541138,390.184113 571.973267,391.391235 
	C576.497009,392.623291 579.266296,395.555206 579.283447,400.312714 
	C579.370056,424.299744 579.363831,448.287354 579.298767,472.274506 
	C579.285583,477.131561 576.775818,480.619049 572.107544,481.954285 
	C567.673462,483.222534 563.909058,481.701385 561.167358,477.913422 
	C560.504272,476.997345 559.889038,476.046570 559.257751,475.120392 
	C528.956665,493.970764 498.363312,475.866333 489.973389,454.422638 
	C480.016174,428.973236 492.185669,401.988892 518.747925,392.448303 
M525.219055,410.586304 
	C523.827637,411.139282 522.392944,411.603577 521.051575,412.259003 
	C507.664551,418.800781 502.137573,435.235077 508.861053,448.425568 
	C515.687439,461.817932 532.107422,467.161072 545.100830,460.218201 
	C557.264160,453.718903 562.620667,439.715485 557.967529,426.982941 
	C553.714233,415.344421 539.575195,406.359741 525.219055,410.586304 
z"/>
<path fill="#ffffff" opacity="1.000000" stroke="none" 
	d="
M624.292114,365.230530 
	C626.027100,372.208130 625.039551,378.900116 625.119690,385.532745 
	C625.165283,389.310791 626.137207,391.131775 630.224792,390.797546 
	C633.535034,390.526886 636.889526,390.662415 640.218384,390.782043 
	C646.751404,391.016754 651.139587,395.049988 651.201233,400.733734 
	C651.261658,406.304871 646.736816,410.242126 640.139221,410.358215 
	C639.805969,410.364075 639.472595,410.360626 639.139282,410.363037 
	C625.189514,410.463989 625.181091,410.464020 625.190918,424.667023 
	C625.198364,435.499084 625.171692,446.331757 625.275940,457.163025 
	C625.332642,463.050079 626.698975,463.772369 631.678711,460.859772 
	C636.633362,457.961853 641.914246,458.753235 645.080505,462.868195 
	C648.385071,467.162872 647.930420,472.113953 643.543213,476.301025 
	C636.527161,482.997070 628.106445,484.147339 619.434937,480.783142 
	C610.730164,477.406006 606.015747,470.296844 605.760376,461.024231 
	C605.374939,447.036011 605.637268,433.030151 605.606995,419.031860 
	C605.588562,410.485168 605.573975,410.485199 597.031067,410.371124 
	C588.284851,410.254303 583.318848,403.221252 587.010559,396.148651 
	C588.795776,392.728516 591.824951,391.176422 595.520691,390.852844 
	C597.507446,390.678894 599.520203,390.677216 601.515320,390.752411 
	C604.508301,390.865173 605.680420,389.513519 605.621948,386.542816 
	C605.510376,380.879181 605.569092,375.211060 605.628967,369.545532 
	C605.690430,363.736298 608.201233,360.071625 612.788208,358.920227 
	C617.315674,357.783752 621.181458,359.789886 624.292114,365.230530 
z"/>
</svg>